HIERARCHY
ROOT Hips
{
	OFFSET 0.00000 0.00000 0.00000
	CHANNELS 6 Xposition Yposition Zposition Yrotation Zrotation Xrotation 
	JOINT Lumbar
	{
		OFFSET 0 0 0
		CHANNELS 3 Zrotation Xrotation Yrotation
		JOINT Neck
		{
			OFFSET 0.00 0.2701 0.00
			CHANNELS 3 Zrotation Xrotation Yrotation
			End Site
			{
				OFFSET 0.00 0.1379 0.00
			}
		}
		JOINT RightShoulder
		{
			OFFSET 0.0119 0.2289 0.1181
			CHANNELS 3 Zrotation Xrotation Yrotation
			JOINT RightElbow
			{
				OFFSET 0.00 -0.1475 0.00
				CHANNELS 2 Zrotation Yrotation
				JOINT RightWrist
				{
					OFFSET 0.00 -0.1605 0.00
					CHANNELS 2 Zrotation Xrotation
					End Site
					{
						OFFSET 0.0040 -0.1068 0.0006
					}
				}
			}
		}
		JOINT LeftShoulder
		{
			OFFSET 0.0119 0.2289 -0.1181
			CHANNELS 3 Zrotation Xrotation Yrotation
			JOINT LeftElbow
			{
				OFFSET 0.00 -0.1475 0.00
				CHANNELS 2 Zrotation Yrotation
				JOINT LeftWrist
				{
					OFFSET 0.00 -0.1605 0.00
					CHANNELS 2 Zrotation Xrotation
					End Site
					{
						OFFSET 0.0040 -0.1068 -0.0006
					}
				}
			}
		}
	}
	JOINT RightHip
	{
		OFFSET 0.0316 -0.0424 0.0458
		CHANNELS 3 Zrotation Xrotation Yrotation
		JOINT RightKnee
		{
			OFFSET 0.00 -0.2438 0.00
			CHANNELS 1 Zrotation
			JOINT RightAnkle
			{
				OFFSET 0.00 -0.2449 0.00
				CHANNELS 3 Zrotation Xrotation Yrotation
				End Site
				{
					OFFSET 0.1237 -0.0542 0.0051
				}
			}
		}
	}
	JOINT LeftHip
	{
		OFFSET 0.0316 -0.0424 -0.0458
		CHANNELS 3 Zrotation Xrotation Yrotation
		JOINT LeftKnee
		{
			OFFSET 0.00 -0.2438 0.00
			CHANNELS 1 Zrotation
			JOINT LeftAnkle
			{
				OFFSET 0.00 -0.2449 0.00
				CHANNELS 3 Zrotation Xrotation Yrotation
				End Site
				{
					OFFSET 0.1237 -0.0542 -0.0051
				}
			}
		}
	}
}
MOTION
Frames: 30
Frame Time: 0.02
3e-05 0.0003 -0.00037 32.74426 -17.4231 -3.68762 43.38772 -0.86817 -9.02274 -14.03922 5.53431 -0.43159 -19.06371 -2.29761 -21.87536 23.94141 124.03701 15.55397 5.3047 -26.85294 4.00767 7.86242 31.38996 -145.25992 27.99762 -7.95494 26.50563 -1.552 -1.48063 -19.95647 -6.55435 -4.68128 -3.13766 32.44139 2.81086 6.22603 -23.91391 -6.53866 2.19017 1.71059
-0.00025 0.00023 2e-05 32.74062 -17.41522 -3.68298 43.3749 -0.85053 -9.04937 -13.93374 5.52793 -0.43191 -19.04717 -2.36561 -22.3219 23.74214 123.98957 15.47016 5.32113 -26.84651 4.19603 7.43377 31.38737 -143.97475 27.69858 -7.65997 26.55769 -1.61861 -1.93412 -19.96704 -6.52361 -4.63502 -3.10597 32.50123 2.75825 5.92036 -23.92399 -6.53934 2.22293 1.73278
-0.00053 0.00015 0.00041 32.73693 -17.4073 -3.67835 43.36209 -0.83292 -9.07584 -13.82847 5.52161 -0.43224 -19.03076 -2.43364 -22.76649 23.54326 123.94247 15.38665 5.33754 -26.83996 4.38427 7.00484 31.38457 -142.68803 27.3987 -7.36508 26.6096 -1.68496 -2.38604 -19.9776 -6.49297 -4.58892 -3.07437 32.56087 2.70581 5.61552 -23.93403 -6.54002 2.25562 1.75492
-0.0008 7e-05 0.0008 32.73329 -17.39944 -3.67372 43.34931 -0.81533 -9.10239 -13.72329 5.51526 -0.43256 -19.0143 -2.50147 -23.21158 23.34457 123.89524 15.30311 5.35394 -26.83353 4.57215 6.57715 31.38194 -141.40551 27.10016 -7.07082 26.6615 -1.75135 -2.8381 -19.98815 -6.46233 -4.54281 -3.04278 32.62052 2.65336 5.31077 -23.94408 -6.54069 2.28829 1.77705
-0.00108 -0 0.00119 32.72971 -17.39162 -3.66908 43.33653 -0.79772 -9.12912 -13.61797 5.50886 -0.43289 -18.99765 -2.56921 -23.65878 23.14558 123.84751 15.21921 5.37032 -26.82727 4.75991 6.15062 31.37962 -140.12775 26.8035 -6.77698 26.71355 -1.81803 -3.29179 -19.9987 -6.43159 -4.49655 -3.01106 32.68037 2.60074 5.00524 -23.95415 -6.54136 2.32102 1.79922
-0.00135 -8e-05 0.00157 32.72577 -17.38349 -3.66448 43.32365 -0.7801 -9.15505 -13.51281 5.50268 -0.43321 -18.98171 -2.63783 -24.09785 22.94692 123.8017 15.13652 5.38679 -26.82012 4.94909 5.71681 31.37586 -138.82294 26.49706 -6.48 26.76519 -1.88368 -3.73996 -20.00927 -6.40118 -4.45077 -2.97973 32.73957 2.54869 4.70191 -23.96415 -6.54206 2.35362 1.82128
-0.00163 -0.00016 0.00196 32.72259 -17.37601 -3.65981 43.31098 -0.76252 -9.18256 -13.40742 5.49607 -0.43354 -18.96444 -2.70459 -24.5529 22.74786 123.75231 15.05156 5.4031 -26.81476 5.13541 5.29744 31.37491 -137.57098 26.20966 -6.1892 26.81759 -1.95133 -4.1987 -20.01978 -6.37014 -4.40407 -2.94768 32.8 2.49554 4.39445 -23.97427 -6.5427 2.38645 1.84355
-0.0019 -0.00024 0.00235 32.71868 -17.36793 -3.6552 43.29812 -0.7449 -9.20861 -13.30226 5.48986 -0.43386 -18.94829 -2.77306 -24.99301 22.54909 123.70579 14.96855 5.4195 -26.80778 5.324 4.86599 31.37151 -136.27578 25.9065 -5.89352 26.86929 -2.01713 -4.64777 -20.03036 -6.33967 -4.35822 -2.91628 32.85931 2.44342 4.09084 -23.98429 -6.54339 2.41906 1.86563
-0.00218 -0.00031 0.00274 32.71398 -17.35911 -3.65065 43.28503 -0.72727 -9.2329 -13.19723 5.48413 -0.43419 -18.93394 -2.84371 -25.41576 22.35085 123.66449 14.88847 5.43624 -26.79867 5.51698 4.41441 31.36452 -134.90439 25.57651 -5.58835 26.92013 -2.08069 -5.08489 -20.04099 -6.30994 -4.31338 -2.88569 32.91722 2.39248 3.79161 -23.99417 -6.54414 2.45144 1.88749
-0.00246 -0.00039 0.00313 32.7141 -17.35449 -3.6457 43.27327 -0.70979 -9.2674 -13.09101 5.47558 -0.4345 -18.9105 -2.90213 -25.94109 22.15009 123.59831 14.79318 5.45173 -26.80134 5.68956 4.06245 31.37638 -133.90107 25.37806 -5.32719 26.9759 -2.1572 -5.59039 -20.05124 -6.27605 -4.26268 -2.85047 32.9831 2.33448 3.46621 -24.0048 -6.54455 2.48525 1.91062
-0.00272 -0.00046 0.00352 32.7039 -17.34106 -3.64165 43.25871 -0.69192 -9.28029 -12.98762 5.47303 -0.43484 -18.90544 -2.98612 -26.24833 21.95433 123.58132 14.72894 5.46941 -26.77951 5.90202 3.5109 31.34966 -132.16681 24.91688 -4.98007 27.0213 -2.20637 -5.95183 -20.06234 -6.25092 -4.22436 -2.82501 33.03221 2.29159 3.19668 -24.01386 -6.54569 2.516 1.93105
-0.00293 -0.0005 0.00391 32.66656 -17.30287 -3.63964 43.23638 -0.67356 -9.23392 -12.88949 5.48654 -0.43525 -18.95814 -3.1429 -25.963 21.7757 123.72131 14.75773 5.49571 -26.68686 6.25157 2.31727 31.20639 -128.02334 23.60328 -4.33675 27.03757 -2.17988 -5.91252 -20.07557 -6.25019 -4.2201 -2.82673 33.03458 2.28873 3.07607 -24.01855 -6.54871 2.53864 1.94426
-0.00311 -0.00052 0.00429 32.61882 -17.25593 -3.63859 43.21128 -0.65472 -9.16596 -12.79479 5.50596 -0.43568 -19.02824 -3.32493 -25.45635 21.60199 123.9022 14.81527 5.523 -26.57036 6.63639 0.93968 31.02643 -123.21594 22.04859 -3.61766 27.04347 -2.12611 -5.72962 -20.08974 -6.25821 -4.22825 -2.8382 33.02022 2.30122 3.01213 -24.02166 -6.55248 2.55814 1.95471
-0.00331 -0.00054 0.00468 32.57481 -17.21341 -3.63742 43.18746 -0.63567 -9.1077 -12.70004 5.52318 -0.43609 -19.08516 -3.49359 -25.04873 21.42309 124.05561 14.85581 5.54905 -26.46696 6.98654 -0.29076 30.87019 -118.98175 20.69216 -2.9734 27.05461 -2.08519 -5.61591 -20.1036 -6.26199 -4.23066 -2.84493 33.01404 2.30774 2.92538 -24.02554 -6.55598 2.57891 1.9663
-0.0035 -0.00057 0.00506 32.53421 -17.16909 -3.63503 43.16343 -0.61827 -9.04938 -12.59849 5.53914 -0.43652 -19.16308 -3.67004 -24.65232 21.25445 124.26477 14.91708 5.58142 -26.35355 7.414 -1.78555 30.68393 -113.61937 18.96753 -2.16099 27.06379 -2.04213 -5.48505 -20.11683 -6.26686 -4.23349 -2.85291 33.00553 2.31044 2.82722 -24.02921 -6.55921 2.60041 1.97841
-0.00369 -0.00059 0.00545 32.485 -17.12633 -3.6353 43.13934 -0.5975 -8.98668 -12.51243 5.55816 -0.43693 -19.20299 -3.83659 -24.17369 21.0684 124.34476 14.93689 5.59711 -26.25589 7.69063 -2.77876 30.55176 -110.42533 17.9442 -1.67766 27.07426 -1.99728 -5.35619 -20.13176 -6.27158 -4.23844 -2.86067 32.99774 2.32425 2.76515 -24.03294 -6.56317 2.61955 1.98873
-0.00389 -0.00063 0.00584 32.40717 -17.091 -3.64352 43.11466 -0.56615 -8.91186 -12.46435 5.59208 -0.43732 -19.1201 -3.96548 -23.58342 20.80941 124.2677 14.88253 5.60112 -26.20297 7.52648 -2.29498 30.57632 -113.59015 18.99008 -2.14885 27.09353 -1.95243 -5.266 -20.14956 -6.27331 -4.24559 -2.86494 32.99781 2.36906 2.79884 -24.0374 -6.5689 2.63368 1.99503
-0.00409 -0.00067 0.00623 32.32288 -17.05738 -3.65425 43.09033 -0.5317 -8.83424 -12.43272 5.62711 -0.4377 -19.00107 -4.0836 -22.91063 20.53729 124.03069 14.77925 5.58351 -26.16762 7.21248 -1.30914 30.65717 -118.91968 20.73613 -2.94833 27.11394 -1.90706 -5.18326 -20.16927 -6.2747 -4.25458 -2.86875 32.99895 2.42382 2.86547 -24.04197 -6.57536 2.64533 1.99952
-0.00429 -0.0007 0.00662 32.24583 -17.02226 -3.66326 43.0664 -0.49954 -8.76161 -12.39585 5.65688 -0.43809 -18.90722 -4.2102 -22.23051 20.28653 123.71595 14.66397 5.55101 -26.12721 6.97703 -0.58347 30.713 -123.12342 22.11372 -3.58022 27.13211 -1.86307 -5.09835 -20.1892 -6.27647 -4.26309 -2.87307 32.99838 2.47129 2.90993 -24.04638 -6.5815 2.65776 2.00474
-0.0045 -0.00073 0.00703 32.14837 -16.98972 -3.67467 43.03955 -0.46355 -8.67315 -12.34866 5.7082 -0.43846 -18.77619 -4.32534 -21.71571 19.97036 123.99411 14.68341 5.61612 -26.07349 6.69765 0.27228 30.7641 -127.91014 23.69614 -4.28892 27.15727 -1.81327 -5.00301 -20.20476 -6.27745 -4.27044 -2.87638 33.00207 2.53073 2.985 -24.05113 -6.58756 2.67192 2.01045
-0.00469 -0.00078 0.0074 32.0944 -16.95254 -3.68178 43.01949 -0.43492 -8.61647 -12.32806 5.71324 -0.43887 -18.71482 -4.45794 -20.86021 19.78797 123.05347 14.42381 5.4813 -26.05214 6.47501 0.97697 30.84024 -131.99709 25.02002 -4.91436 27.16817 -1.77582 -4.93341 -20.22964 -6.28006 -4.28061 -2.88165 32.99774 2.56769 3.00563 -24.05532 -6.59403 2.68149 2.0145
-0.00484 -0.00085 0.00768 32.14269 -16.90043 -3.67534 43.01316 -0.42615 -8.65467 -12.36643 5.60338 -0.43939 -18.84662 -4.67262 -18.90513 19.97191 118.3003 13.28495 4.72381 -26.11406 6.43434 1.1586 30.95974 -133.69238 25.47011 -5.24875 27.14041 -1.77259 -4.93052 -20.28177 -6.28571 -4.29689 -2.8916 32.96808 2.53726 2.84739 -24.05731 -6.60086 2.68286 2.01662
-0.00499 -0.00094 0.00792 32.23919 -16.844 -3.66473 43.01456 -0.42501 -8.72342 -12.43302 5.4442 -0.43995 -19.05164 -4.90009 -16.64071 20.29179 112.40479 11.88643 3.77817 -26.20815 6.45778 1.16929 31.10442 -134.5967 25.63411 -5.48458 27.09809 -1.78192 -4.9544 -20.34287 -6.2933 -4.31616 -2.90368 32.9311 2.48414 2.63618 -24.05897 -6.60821 2.67902 2.01674
-0.00513 -0.00102 0.00817 32.3257 -16.79064 -3.65664 43.01573 -0.42128 -8.77462 -12.49332 5.29923 -0.44049 -19.22771 -5.10008 -14.6413 20.55388 107.36587 10.68947 2.97079 -26.28911 6.45928 1.24727 31.24627 -135.82327 25.92388 -5.75361 27.06189 -1.78565 -4.96851 -20.39854 -6.30088 -4.33474 -2.91526 32.89931 2.44344 2.46313 -24.06108 -6.61571 2.67506 2.01634
-0.00528 -0.0011 0.00846 32.35945 -16.73242 -3.64578 43.00322 -0.41415 -8.84296 -12.52609 5.18985 -0.44102 -19.38237 -5.38787 -12.12936 20.79987 100.94533 9.15 1.94756 -26.36534 6.42563 1.38388 31.35575 -137.29127 26.25926 -6.08393 27.02797 -1.78894 -4.97302 -20.45987 -6.30457 -4.35033 -2.92471 32.85909 2.39493 2.23423 -24.06152 -6.62159 2.68148 2.02189
-0.00543 -0.00118 0.00865 32.5174 -16.68355 -3.63995 43.02084 -0.41546 -8.88065 -12.62335 4.99348 -0.44159 -19.60188 -5.50013 -10.59273 21.11033 97.07238 8.24794 1.31996 -26.45761 6.48181 1.35457 31.53531 -138.02889 26.41831 -6.25775 26.98565 -1.79608 -5.0034 -20.51165 -6.31711 -4.37312 -2.93926 32.83542 2.35623 2.10557 -24.06586 -6.631 2.66513 2.01462
-0.00555 -0.00121 0.00858 32.98371 -16.6592 -3.64697 43.12065 -0.44218 -8.84537 -12.88584 4.57856 -0.44228 -19.96103 -5.08772 -12.00093 21.57734 101.04856 9.30072 1.91495 -26.59639 6.77598 0.87832 31.9247 -137.03795 26.1962 -6.03265 26.92552 -1.81108 -5.10286 -20.53405 -6.35102 -4.41275 -2.9661 32.85403 2.35848 2.29306 -24.07866 -6.64946 2.58677 1.97217
-0.00567 -0.00123 0.00842 33.57819 -16.64488 -3.65986 43.24982 -0.47624 -8.77454 -13.21309 4.07613 -0.44302 -20.38619 -4.50457 -14.37198 22.10145 107.5363 10.98134 2.90022 -26.74803 7.15807 0.24422 32.37961 -135.31506 25.79781 -5.65072 26.85726 -1.8293 -5.22701 -20.54683 -6.39428 -4.45996 -2.99822 32.89139 2.36998 2.57827 -24.09712 -6.67152 2.48577 1.91694
-0.0058 -0.00126 0.0083 34.12829 -16.62743 -3.67104 43.36567 -0.50459 -8.70756 -13.51475 3.60726 -0.44373 -20.79666 -4.02454 -16.18341 22.59294 112.51484 12.28664 3.65025 -26.88731 7.49695 -0.30016 32.78901 -133.84885 25.45133 -5.33214 26.79135 -1.84609 -5.33661 -20.56437 -6.43495 -4.50523 -3.02875 32.92245 2.37149 2.8011 -24.11298 -6.69233 2.39543 1.86775
-0.00587 -0.00127 0.00819 34.61928 -16.6036 -3.67688 43.48392 -0.54395 -8.69397 -13.80199 3.1623 -0.44441 -21.14891 -3.43957 -18.48675 23.12121 118.97599 13.95601 4.63306 -27.05598 7.85161 -0.92632 33.26424 -132.65949 25.20835 -5.04119 26.72998 -1.8639 -5.45964 -20.57995 -6.4686 -4.54428 -3.05596 32.94026 2.39582 3.09748 -24.12374 -6.71165 2.30337 1.8175
